<?xml version="1.0" standalone="no"?>
<!DOCTYPE svg PUBLIC "-//W3C//DTD SVG 1.1//EN" 
"http://www.w3.org/Graphics/SVG/1.1/DTD/svg11.dtd">

<svg width="100%" height="100%" version="1.1"
xmlns="http://www.w3.org/2000/svg">

<!-- for the three bottom lines -->
<line x1="25" y1="25" x2="25" y2="100" style="stroke:rgb(99,99,99);stroke-width:2"/>
<line x1="150" y1="25" x2="150" y2="100" style="stroke:rgb(99,99,99);stroke-width:2"/>
<line x1="25" y1="100" x2="150" y2="100" style="stroke:rgb(99,99,99);stroke-width:2"/>
<line x1="87.5" y1="25" x2="87.5" y2="100" style="stroke:rgb(99,99,99);stroke-width:2"/>


<!-- the right angles -->
<line x1="25" y1="90" x2="35" y2="90" style="stroke:rgb(99,99,99);stroke-width:2"/>
<line x1="35" y1="90" x2="35" y2="100" style="stroke:rgb(99,99,99);stroke-width:2"/>

<line x1="140" y1="90" x2="150" y2="90" style="stroke:rgb(99,99,99);stroke-width:2"/>
<line x1="140" y1="100" x2="140" y2="90" style="stroke:rgb(99,99,99);stroke-width:2"/>

<line x1="87.5" y1="90" x2="97.5" y2="90" style="stroke:rgb(99,99,99);stroke-width:2"/>
<line x1="97.5" y1="100" x2="97.5" y2="90" style="stroke:rgb(99,99,99);stroke-width:2"/>

<line x1="87.5" y1="35" x2="97.5" y2="35" style="stroke:rgb(99,99,99);stroke-width:2"/>
<line x1="97.5" y1="25" x2="97.5" y2="35" style="stroke:rgb(99,99,99);stroke-width:2"/>




<!-- for the top line as "straight" -->
<line x1="25" y1="25" x2="150" y2="25" style="stroke:rgb(99,99,99);stroke-width:2"/>


<!-- the letters -->
<!-- for the first diagram -->
<text x="25" y="15">D</text>
<text x="25" y="125">A</text>
<text x="140" y="125">B</text>
<text x="140" y="15">C</text>
<text x="87.5" y="125">E</text>
<text x="87.5" y="15">F</text>

<!-- for the second diagram -->
<text x="225" y="15">D</text>
<text x="225" y="125">A</text>
<text x="340" y="125">B</text>
<text x="340" y="15">C</text>
<text x="287.5" y="125">E</text>
<text x="287.5" y="35">F</text>




<text x="175" y="67" class="title">Or</text>




<line x1="225" y1="100" x2="350" y2="100" style="stroke:rgb(99,99,99);stroke-width:2"/>
<line x1="225" y1="100" x2="225" y2="25" style="stroke:rgb(99,99,99);stroke-width:2"/>
<line x1="350" y1="100" x2="350" y2="25" style="stroke:rgb(99,99,99);stroke-width:2"/>
<line x1="287.5" x2="287.5" y1="45" y2="100" style="stroke:rgb(99,99,99);stroke-width:2"/>

<!-- the curve in here -->
<path
   style="fill:none;fill-rule:evenodd;stroke:black;stroke-width:2px;stroke-linecap:butt;stroke-linejoin:miter;stroke-opacity:1"
   d="M 225, 25 C 225,25 287.5,72 350,25"
   id="path2966"/>

<!-- the curve as generated by inkscape: -->
<!--"M 349.70749,24.599519 L 463.11048,24.09425 L 224.54419,25.61006 C 224.54419,25.61006 289.22589,72.600198 349.70749,24.599519" -->

<!-- the right angles -->
<line x1="225" y1="90" x2="235" y2="90" style="stroke:rgb(99,99,99);stroke-width:2"/>
<line x1="235" y1="90" x2="235" y2="100" style="stroke:rgb(99,99,99);stroke-width:2"/>

<line x1="350" y1="90" x2="340" y2="90" style="stroke:rgb(99,99,99);stroke-width:2"/>
<line x1="340" y1="100" x2="340" y2="90" style="stroke:rgb(99,99,99);stroke-width:2"/>

<line x1="287.5" y1="55" x2="297.5" y2="55" style="stroke:rgb(99,99,99);stroke-width:2"/>
<line x1="297.5" y1="45" x2="297.5" y2="55" style="stroke:rgb(99,99,99);stroke-width:2"/>

<line x1="287.5" y1="90" x2="297.5" y2="90" style="stroke:rgb(99,99,99);stroke-width:2"/>
<line x1="297.5" y1="90" x2="297.5" y2="100" style="stroke:rgb(99,99,99);stroke-width:2"/>


<text x="75" y="160" class="title">(2) The Saccheri Quadrilateral</text>




</svg>
